Coordinates
version=1
nRows=5
nColumns=63
inDegrees=yes

Units are S.I. units (second, meters, Newtons, ...)
If the header above contains a line with 'inDegrees', this indicates whether rotational values are in degrees (yes) or radians (no).

endheader
time	pelvis_tilt	pelvis_list	pelvis_rotation	pelvis_tx	pelvis_ty	pelvis_tz	hip_flexion_r	hip_adduction_r	hip_rotation_r	knee_angle_r	knee_angle_r_beta	ankle_angle_r	subtalar_angle_r	mtp_angle_r	hip_flexion_l	hip_adduction_l	hip_rotation_l	knee_angle_l	knee_angle_l_beta	ankle_angle_l	subtalar_angle_l	mtp_angle_l	L5_S1_Flex_Ext	L5_S1_Lat_Bending	L5_S1_axial_rotation	L4_L5_Flex_Ext	L4_L5_Lat_Bending	L4_L5_axial_rotation	L3_L4_Flex_Ext	L3_L4_Lat_Bending	L3_L4_axial_rotation	L2_L3_Flex_Ext	L2_L3_Lat_Bending	L2_L3_axial_rotation	L1_L2_Flex_Ext	L1_L2_Lat_Bending	L1_L2_axial_rotation	L1_T12_Flex_Ext	L1_T12_Lat_Bending	L1_T12_axial_rotation	Abs_r3	Abs_r2	Abs_r1	Abs_t1	Abs_t2	neck_flexion	neck_bending	neck_rotation	arm_flex_r	arm_add_r	arm_rot_r	elbow_flex_r	pro_sup_r	wrist_flex_r	wrist_dev_r	arm_flex_l	arm_add_l	arm_rot_l	elbow_flex_l	pro_sup_l	wrist_flex_l	wrist_dev_l
     11.30000000	     -6.14300673	     12.86196297	     84.53690441	      0.19873257	      0.90132894	      0.70220943	     -6.98124791	     -9.16755526	      1.66695386	     20.32635281	      0.35476178	     36.46634189	      9.76132099	      0.00000000	     -7.48924846	      7.57473554	     -1.50341683	     20.07897809	      0.35044428	     31.32082929	     -1.85406138	      0.00000000	     -1.81780182	     -1.19968399	     -9.31919647	     -3.37583976	     -1.59557971	     -9.90164625	     -2.98646661	     -2.91691166	     -9.90164625	     -2.07756570	     -2.91691166	     -8.15429691	     -1.68801077	     -2.44639560	     -7.57184713	     -1.03869196	     -1.85831050	     -6.98939735	    -12.98437661	    -13.57106526	    -51.83057502	      0.00000000	      0.00000000	      2.79284833	    -18.38137704	     44.85487408	    102.69020951	     52.20452786	    145.54908911	      0.03201435	      0.39824016	    -69.94850382	    -24.74294186	     -9.85009088	    -59.05969394	   -102.97310797	    149.85006576	     68.85981918	     -8.00654227	     -3.56651305
     11.31666667	     -5.95983937	     12.92613252	     84.20744763	      0.19783302	      0.90113637	      0.70136176	     -7.09840356	     -9.12321389	      1.83810746	     20.35674561	      0.35529224	     36.48206541	      9.87122175	      0.00000000	     -7.66353240	      7.53716637	     -1.72244645	     20.03039773	      0.34959639	     31.31999204	     -2.09428585	      0.00000000	     -1.81674086	     -1.17832298	     -9.48636696	     -3.37386945	     -1.56716956	    -10.07926489	     -2.98472356	     -2.86497449	    -10.07926489	     -2.07635313	     -2.86497449	     -8.30057109	     -1.68702556	     -2.40283622	     -7.70767315	     -1.03808573	     -1.82522230	     -7.11477522	    -12.97679828	    -13.32942521	    -52.76032711	      0.00000000	      0.00000000	      2.89961690	    -18.18716481	     44.85394233	    102.27681937	     52.62666745	    145.63577822	      0.03189664	      0.39912652	    -69.94958968	    -24.73829240	    -12.55337184	    -58.04118308	   -105.86469439	    149.83812879	     69.45880607	     -8.34571041	     -3.60118206
     11.33333333	     -5.73493776	     12.84688219	     83.76604712	      0.19687668	      0.90078121	      0.70074494	     -6.98674109	     -9.03169598	      2.20483605	     20.47097788	      0.35728597	     36.43243191	      9.95087585	      0.00000000	     -7.65296645	      7.46649222	     -2.08410572	     20.03672917	      0.34970690	     31.25391653	     -2.44124586	      0.00000000	     -1.82828076	     -1.13121863	     -9.57438471	     -3.39530019	     -1.50452078	    -10.17278376	     -3.00368245	     -2.75044498	    -10.17278376	     -2.08954208	     -2.75044498	     -8.37758662	     -1.69774151	     -2.30678103	     -7.77918758	     -1.04467962	     -1.75225766	     -7.18078854	    -13.05922661	    -12.79657141	    -53.24985546	      0.00000000	      0.00000000	      3.00305628	    -17.92263334	     44.85062961	    102.03492295	     52.96022226	    145.99589296	      0.03173392	      0.39816306	    -69.95047334	    -24.73109565	    -14.18734016	    -56.94354959	   -107.70483157	    149.82389581	     69.90579498	     -8.64712498	     -4.28488152
     11.35000000	     -5.70810315	     12.78709102	     83.51265328	      0.19649817	      0.90050448	      0.70022485	     -6.91885333	     -9.02293921	      2.75005992	     20.58419697	      0.35926201	     36.33681524	      9.63240538	      0.00000000	     -7.66710320	      7.51227985	     -2.42739701	     20.01542951	      0.34933515	     31.09329383	     -2.62892655	      0.00000000	     -1.85249418	     -1.10588650	     -9.65851309	     -3.44026695	     -1.47082905	    -10.26217016	     -3.04346270	     -2.68885245	    -10.26217016	     -2.11721560	     -2.68885245	     -8.45119896	     -1.72022610	     -2.25512376	     -7.84754189	     -1.05851518	     -1.71301820	     -7.24388482	    -13.23218071	    -12.51000932	    -53.71775226	      0.00000000	      0.00000000	      3.01144065	    -17.43160403	     44.84668183	    101.99977242	     53.37985036	    146.18748843	      0.03185062	      0.40173835	    -69.95082730	    -24.72703107	    -16.08464650	    -56.13130562	   -109.80749058	    149.81270552	     69.68680295	     -9.13291625	     -4.72821920
     11.36666667	     -5.81043737	     12.70909523	     83.50371711	      0.19575687	      0.90038603	      0.69970932	     -6.88422474	     -9.16138760	      2.88090664	     20.65724154	      0.36053688	     36.23975513	      9.65807367	      0.00000000	     -7.64149646	      7.64653456	     -2.61171538	     20.02617320	      0.34952266	     30.89284393	     -2.68510894	      0.00000000	     -1.89548834	     -1.07227284	     -9.67537205	     -3.52011140	     -1.42612288	    -10.28008280	     -3.11409779	     -2.60712418	    -10.28008280	     -2.16635362	     -2.60712418	     -8.46595054	     -1.76015047	     -2.18657877	     -7.86123979	     -1.08308204	     -1.66095063	     -7.25652904	    -13.53928366	    -12.12976481	    -53.81151672	      0.00000000	      0.00000000	      2.98929499	    -16.96992461	     44.83731790	    102.07064332	     53.63165430	    146.33799247	      0.03210483	      0.41193136	    -69.95074985	    -24.72875880	    -16.14008590	    -55.56449882	   -109.88934281	    149.79240534	     69.62494490	     -9.20442246	     -4.66154004
